<svg xmlns="http://www.w3.org/2000/svg" viewBox="0 0 64 64" fill="none">
  <rect width="64" height="64" rx="16" fill="#4F46E5"/>
  <path d="M20 18h10.5c6.075 0 11 4.925 11 11s-4.925 11-11 11H20V18Z" fill="#ffffff" opacity="0.95"/>
  <path d="M30.5 18h3c6.075 0 11 4.925 11 11s-4.925 11-11 11h-3V18Z" fill="#C7D2FE"/>
  <path d="M19 42c0-2.2 1.8-4 4-4h18c2.2 0 4 1.8 4 4v3H19v-3Z" fill="#E0E7FF"/>
  <circle cx="43.5" cy="22.5" r="4.5" fill="#ffffff"/>
  <path d="M43.5 20.2l1.2 2.4 2.6.4-1.9 1.9.5 2.6-2.4-1.3-2.4 1.3.5-2.6-1.9-1.9 2.6-.4 1.2-2.4Z" fill="#4F46E5"/>
</svg>
